<svg width="64" height="64" fill="none" xmlns="http://www.w3.org/2000/svg"><path d="M56 29.954L58 30c.006-.26 0-1.498 0-1.76V11a1 1 0 00-1-1 41.861 41.861 0 01-23.264-7.041l-1.179-.79a1 1 0 00-1.114 0l-1.176.789A42.17 42.17 0 0119.151 8.2 42.026 42.026 0 017 10a1 1 0 00-1 1v21h2V11.988a44.032 44.032 0 0011.73-1.871 44.124 44.124 0 0011.647-5.5L32 4.2l.626.419A43.831 43.831 0 0056 11.988V28.24c0 .246.009 1.468 0 1.714z" fill="url(#paint0_linear)"/><path d="M40.151 55.288L32 59.854l-8.15-4.566a30.988 30.988 0 01-7.581-5.968L14.8 50.68a32.969 32.969 0 008.07 6.352l8.64 4.84a.994.994 0 00.976 0l8.64-4.84a32.898 32.898 0 007.591-5.844L47.281 49.8a30.862 30.862 0 01-7.13 5.488z" fill="url(#paint1_linear)"/><path d="M18.285 48.536a28.728 28.728 0 006.546 5.006l6.68 3.75a1 1 0 00.978 0l6.679-3.75a28.828 28.828 0 005.512-4l-1.36-1.466a26.844 26.844 0 01-5.13 3.724L32 55.273 25.808 51.8a26.758 26.758 0 01-6.093-4.66l-1.43 1.396z" fill="url(#paint2_linear)"/><path d="M52 28h2c.007-.262 0 .212 0-.051V14.83a1 1 0 00-.916-1 46.02 46.02 0 01-20.552-6.887 1 1 0 00-1.064 0 46.021 46.021 0 01-20.552 6.891 1 1 0 00-.916 1V28.24c0 .263-.01 1.499-.003 1.76h2c-.008-.244.003-1.515.003-1.76v-12.5a48.059 48.059 0 0020-6.773 48.06 48.06 0 0020 6.773V28c0 .245.007-.243 0 0z" fill="url(#paint3_linear)"/><path d="M33 12h-2v2h2v-2z" fill="url(#paint4_linear)"/><path d="M16 17h-2v2h2v-2z" fill="url(#paint5_linear)"/><path d="M50 17h-2v2h2v-2z" fill="url(#paint6_linear)"/><path d="M33 50h-2v2h2v-2z" fill="url(#paint7_linear)"/><path d="M25 15h-2v2h2v-2z" fill="url(#paint8_linear)"/><path d="M41 15h-2v2h2v-2z" fill="url(#paint9_linear)"/><path d="M26 47h-2v2h2v-2z" fill="url(#paint10_linear)"/><path d="M40 47h-2v2h2v-2z" fill="url(#paint11_linear)"/><path d="M26.938 34.337h4.15v2.076h-4.15v-2.076z" fill="url(#paint12_linear)"/><path d="M62.36 31.235l-7.048-1.006a35.566 35.566 0 00-3.993-2.116A34.938 34.938 0 0036.864 25H35.64a35.266 35.266 0 00-16.84 4.294l-3.556 1.94A24.514 24.514 0 003.38 34.45 4.736 4.736 0 001 38.552v6.16c0 .574.464 1.038 1.038 1.038H5.52a6.202 6.202 0 0011.706 0h27.72a6.202 6.202 0 0011.706 0h.372c.132 0 .263-.025.386-.074l3.36-1.348a3.923 3.923 0 002.479-3.662v-8.404c0-.515-.38-.953-.89-1.027zm-46.92 13.27a4.15 4.15 0 11-8.13-1.662 4.15 4.15 0 018.13 1.662zm18.76-.83H17.6a6.225 6.225 0 10-12.45 0H3.075v-5.123c.001-.95.51-1.828 1.335-2.3A22.432 22.432 0 0115.525 33.3H34.2v10.375zm0-12.45H19.594l.2-.11A33.175 33.175 0 0134.2 27.122v4.104zm2.075-4.15h.587a32.83 32.83 0 0112.208 2.339l-1.812 1.811H36.275v-4.15zm18.59 17.43a4.15 4.15 0 11-8.131-1.662 4.15 4.15 0 018.132 1.662zm6.31-10.168h-3.112v2.076h3.112v4.253a1.857 1.857 0 01-1.174 1.734l-2.976 1.195c0-.096-.012-.19-.019-.285-.006-.096-.008-.208-.018-.312-.01-.103-.032-.207-.048-.31-.017-.105-.03-.209-.05-.303-.02-.094-.05-.199-.078-.298-.027-.098-.048-.198-.079-.294-.03-.097-.068-.189-.103-.284-.036-.094-.068-.191-.104-.285-.037-.093-.086-.178-.129-.266-.043-.089-.086-.185-.135-.274-.049-.09-.104-.165-.15-.248a3.22 3.22 0 00-.163-.263c-.06-.085-.114-.152-.171-.229-.057-.077-.122-.167-.188-.247-.066-.08-.128-.142-.193-.208-.064-.065-.136-.153-.207-.225-.072-.073-.143-.13-.214-.195-.072-.064-.148-.14-.227-.207-.079-.068-.16-.12-.238-.178-.079-.06-.158-.123-.24-.178-.084-.055-.177-.104-.266-.162a3.003 3.003 0 00-.246-.148c-.084-.045-.189-.092-.284-.137-.096-.046-.17-.086-.258-.124-.089-.037-.208-.076-.312-.114-.104-.037-.171-.066-.26-.094-.117-.036-.239-.063-.36-.093-.078-.018-.154-.043-.234-.06-.127-.026-.258-.04-.388-.06-.076-.01-.15-.026-.227-.033a6.231 6.231 0 00-6.858 6.193h-8.303V33.3h11.413c.275 0 .539-.11.733-.304l2.69-2.69a33.26 33.26 0 013.29 1.799c.122.076.258.126.402.147l6.372.91v1.175z" fill="url(#paint13_linear)"/><defs><linearGradient id="paint0_linear" x1="6" y1="2.185" x2="58.998" y2="4.06" gradientUnits="userSpaceOnUse"><stop stop-color="#EB5D56"/><stop offset="1" stop-color="#390A40"/></linearGradient><linearGradient id="paint1_linear" x1="14.8" y1="49.398" x2="49.306" y2="51.282" gradientUnits="userSpaceOnUse"><stop stop-color="#EB5D56"/><stop offset="1" stop-color="#390A40"/></linearGradient><linearGradient id="paint2_linear" x1="18.285" y1="47.204" x2="45.145" y2="48.612" gradientUnits="userSpaceOnUse"><stop stop-color="#EB5D56"/><stop offset="1" stop-color="#390A40"/></linearGradient><linearGradient id="paint3_linear" x1="9.994" y1="6.933" x2="54.834" y2="8.668" gradientUnits="userSpaceOnUse"><stop stop-color="#EB5D56"/><stop offset="1" stop-color="#390A40"/></linearGradient><linearGradient id="paint4_linear" x1="31" y1="12.012" x2="33.04" y2="12.054" gradientUnits="userSpaceOnUse"><stop stop-color="#EB5D56"/><stop offset="1" stop-color="#390A40"/></linearGradient><linearGradient id="paint5_linear" x1="14" y1="17.012" x2="16.04" y2="17.054" gradientUnits="userSpaceOnUse"><stop stop-color="#EB5D56"/><stop offset="1" stop-color="#390A40"/></linearGradient><linearGradient id="paint6_linear" x1="48" y1="17.012" x2="50.04" y2="17.054" gradientUnits="userSpaceOnUse"><stop stop-color="#EB5D56"/><stop offset="1" stop-color="#390A40"/></linearGradient><linearGradient id="paint7_linear" x1="31" y1="50.012" x2="33.04" y2="50.054" gradientUnits="userSpaceOnUse"><stop stop-color="#EB5D56"/><stop offset="1" stop-color="#390A40"/></linearGradient><linearGradient id="paint8_linear" x1="23" y1="15.012" x2="25.04" y2="15.054" gradientUnits="userSpaceOnUse"><stop stop-color="#EB5D56"/><stop offset="1" stop-color="#390A40"/></linearGradient><linearGradient id="paint9_linear" x1="39" y1="15.012" x2="41.04" y2="15.054" gradientUnits="userSpaceOnUse"><stop stop-color="#EB5D56"/><stop offset="1" stop-color="#390A40"/></linearGradient><linearGradient id="paint10_linear" x1="24" y1="47.012" x2="26.04" y2="47.054" gradientUnits="userSpaceOnUse"><stop stop-color="#EB5D56"/><stop offset="1" stop-color="#390A40"/></linearGradient><linearGradient id="paint11_linear" x1="38" y1="47.012" x2="40.04" y2="47.054" gradientUnits="userSpaceOnUse"><stop stop-color="#EB5D56"/><stop offset="1" stop-color="#390A40"/></linearGradient><linearGradient id="paint12_linear" x1="26.938" y1="34.35" x2="31.165" y2="34.523" gradientUnits="userSpaceOnUse"><stop stop-color="#EB5D56"/><stop offset="1" stop-color="#390A40"/></linearGradient><linearGradient id="paint13_linear" x1="1" y1="25.154" x2="64.356" y2="28.386" gradientUnits="userSpaceOnUse"><stop stop-color="#EB5D56"/><stop offset="1" stop-color="#390A40"/></linearGradient></defs></svg>